<?xml version="1.0" ?><svg viewBox="0 0 88 88" xmlns="http://www.w3.org/2000/svg"><title/><g data-name="Color picker" id="Color_picker"><path d="M77.05,2.96a6.6632,6.6632,0,0,0-9.42,0L63.42,7.18l9.41,9.41,4.22-4.22a6.6512,6.6512,0,0,0,0-9.41Z"/><path d="M59.7109,6.293a.9994.9994,0,0,0-1.414,0l-6,6a1,1,0,0,0,0,1.414l14,14a.9995.9995,0,0,0,1.414,0l6-6a.9994.9994,0,0,0,0-1.414Z"/><path d="M16.21,65.3916C15.4727,66.354,9.0039,74.9126,9.0039,79a8,8,0,0,0,16,0c0-4.0874-6.4687-12.646-7.206-13.6084A1.037,1.037,0,0,0,16.21,65.3916Z"/><polygon points="38.595 32 57.42 32 62.59 26.83 53.18 17.42 38.595 32"/><path d="M22.3,48.29a.9416.9416,0,0,0-.24.39l-4,12a1.0065,1.0065,0,0,0,.24,1.03A.9837.9837,0,0,0,19,62a1.127,1.127,0,0,0,.32-.05l12-4a.9835.9835,0,0,0,.39-.24L55.42,34H36.5946Z"/></g></svg>